<?xml version="1.0" standalone="no"?><!DOCTYPE svg PUBLIC "-//W3C//DTD SVG 1.1//EN" "http://www.w3.org/Graphics/SVG/1.1/DTD/svg11.dtd"><svg data-name="AlipayHK" width="120" height="40" version="1.1" xmlns="http://www.w3.org/2000/svg" xmlns:xlink="http://www.w3.org/1999/xlink" viewBox="0 0 120 40"><rect class="bg" width="120" height="40" fill="#FFFFFF"></rect><g transform="translate(12, 9.423728813559322) scale(1.6271186440677967)"><path fill-rule="evenodd" clip-rule="evenodd" d="M4.77279 3.55783L6.74141 7.49945H2.72346L4.77279 3.55783ZM7.79376 9.71482H10.2007L5.70488 0.591461H5.04656C4.94105 0.59285 4.83783 0.620899 4.74747 0.672732C4.65659 0.725909 4.58357 0.802664 4.537 0.893968L0 9.71482H1.60623L2.41804 8.22486H7.0405L7.79376 9.71482Z" fill="#373530"></path><path fill-rule="evenodd" clip-rule="evenodd" d="M13.2931 9.71482H11.1187V0.985773C11.1166 0.881277 11.1588 0.780361 11.2358 0.705842C11.3158 0.63267 11.4224 0.591692 11.5333 0.591461H13.2931V9.71482" fill="#373530"></path><path fill-rule="evenodd" clip-rule="evenodd" d="M15.2109 3.37724C15.2104 3.27348 15.2544 3.174 15.3328 3.10182C15.4125 3.02825 15.5192 2.9872 15.6303 2.98744H17.4074V9.71483H15.2109V3.37724" fill="#35322C"></path><path fill-rule="evenodd" clip-rule="evenodd" d="M21.4398 7.84109C21.439 7.99937 21.4724 8.15612 21.5379 8.30163C21.6019 8.44389 21.6962 8.57201 21.8148 8.67788C21.9402 8.78767 22.087 8.87306 22.2468 8.92921C22.4251 8.99172 22.6139 9.02283 22.8039 9.02102C22.9967 9.01853 23.1834 8.95617 23.3356 8.84343C23.5149 8.71279 23.6631 8.54766 23.7708 8.35882C23.9047 8.12501 24.0042 7.87486 24.0667 7.61534C24.1423 7.30702 24.1795 6.9913 24.1775 6.67471C24.1823 6.29143 24.15 5.90855 24.0809 5.53091C24.03 5.24485 23.9379 4.96682 23.8072 4.70466C23.7105 4.5121 23.5673 4.34399 23.3894 4.21403C23.2346 4.10634 23.0478 4.04835 22.8561 4.04848C22.7182 4.04806 22.5812 4.06994 22.451 4.11319C22.3194 4.15734 22.1944 4.21754 22.0791 4.29229C21.9557 4.37015 21.8407 4.45938 21.7357 4.55867C21.6302 4.66071 21.5314 4.76877 21.4398 4.88225V7.84109ZM19.2354 3.38176C19.2358 3.27627 19.2809 3.17539 19.3604 3.10183C19.4409 3.02856 19.548 2.9876 19.6595 2.98744H21.4398V3.51269C21.7057 3.31551 21.9998 3.15537 22.3133 3.03711C22.6782 2.9043 23.0668 2.8404 23.4574 2.84898C23.894 2.84192 24.3267 2.92833 24.7234 3.10183C25.0928 3.26558 25.423 3.49967 25.6935 3.78961C25.9671 4.08426 26.1787 4.42605 26.317 4.79646C26.4612 5.18953 26.5308 5.60381 26.5227 6.02004C26.5296 6.53769 26.4439 7.0527 26.2695 7.5431C26.108 7.98772 25.8546 8.39709 25.5242 8.74711C25.1975 9.0908 24.7971 9.36383 24.35 9.54777C23.8629 9.74469 23.3378 9.8426 22.8086 9.83523C22.519 9.83523 22.269 9.82469 22.0585 9.80513C21.8477 9.7813 21.6412 9.73068 21.4445 9.65463V12.3636H19.2354V3.38176Z" fill="#332D28"></path><path fill-rule="evenodd" clip-rule="evenodd" d="M29.0752 7.4874C29.0752 6.70631 29.7589 6.11032 30.596 6.05163C31.1277 6.01551 31.4474 6.1043 31.6341 6.21417V8.52134C31.3507 8.76807 30.9802 8.90451 30.596 8.90362C30.1967 8.90803 29.812 8.7612 29.5267 8.49552C29.2414 8.22984 29.079 7.86713 29.0752 7.4874M32.2086 3.06419C31.1562 2.78426 29.8253 2.73158 28.0071 3.17255C28.0672 3.34111 28.1463 3.64211 28.2033 3.81669C31.0803 3.3396 31.6341 3.70984 31.6341 4.8702V5.2314C31.1103 5.19678 30.49 5.11401 29.9836 5.10648C28.0166 5.07789 27.3013 6.53624 27.3013 7.4573C27.3013 9.06766 28.9471 10.5621 31.6341 9.45896V9.71632H33.8828V4.80097C33.8828 3.8483 32.9982 3.27188 32.2086 3.06419" fill="#332D28"></path><path fill-rule="evenodd" clip-rule="evenodd" d="M34.4731 2.85951H36.7994L39.0877 7.01333L40.9867 3.12891C41.0258 3.04814 41.0884 2.97972 41.1671 2.93175C41.2466 2.88534 41.3381 2.86085 41.4314 2.86102H42.6736L39.0165 10.3484C38.1382 12.3877 36.0097 12.0988 35.6173 12.0988V10.9685C35.91 10.9685 36.8833 10.979 37.3185 10.5305C37.4224 10.4021 37.5095 10.2621 37.578 10.1136L37.7505 9.77352L38.0053 9.23322L34.4731 2.85951" fill="#332D28"></path><path fill-rule="evenodd" clip-rule="evenodd" d="M17.4815 0.993305C17.4815 1.54263 16.953 1.98962 16.2994 1.98962C15.6459 1.98962 15.1157 1.53812 15.1157 0.993305C15.1157 0.448492 15.6459 0 16.2994 0C16.953 0 17.4815 0.451502 17.4815 0.993305" fill="#00A0E9"></path><path fill-rule="evenodd" clip-rule="evenodd" d="M58.1818 9.78255H56.5709C56.5188 9.78096 56.4708 9.75507 56.4427 9.71332L54.569 6.6431L53.6053 7.70865V9.78255H52.2966C52.2153 9.78255 52.1494 9.71988 52.1494 9.64258V3.02055C52.1494 2.94325 52.2153 2.88058 52.2966 2.88058H53.6053V5.69796C53.6053 5.73702 53.6386 5.76869 53.6797 5.76869C53.7013 5.76881 53.7218 5.75936 53.7351 5.74311L56.1895 2.93778C56.2179 2.90607 56.2596 2.8879 56.3034 2.88811H58.0046L55.5328 5.63023L58.1818 9.78255ZM50.396 9.78255H49.0683C48.987 9.78255 48.9211 9.71988 48.9211 9.64258V7.03892C48.9211 6.96162 48.8552 6.89895 48.7739 6.89895H46.367V9.78255H45.0377C44.957 9.78172 44.8921 9.7193 44.8921 9.64258V3.02055C44.8917 2.98357 44.9068 2.94796 44.9342 2.92167C44.9615 2.89538 44.9988 2.88058 45.0377 2.88058H46.367V5.70699H48.7771C48.8578 5.70699 48.9234 5.64524 48.9243 5.56853V3.02808C48.9243 2.95077 48.9902 2.88811 49.0715 2.88811H50.3992L50.396 9.78255Z" fill="#00A0E9"></path></g></svg>