<?xml version="1.0" standalone="no"?><!DOCTYPE svg PUBLIC "-//W3C//DTD SVG 1.1//EN" "http://www.w3.org/Graphics/SVG/1.1/DTD/svg11.dtd"><svg data-name="Alipay+" width="120" height="40" version="1.1" xmlns="http://www.w3.org/2000/svg" xmlns:xlink="http://www.w3.org/1999/xlink" viewBox="0 0 120 40"><rect class="bg" width="120" height="40" fill="#FFFFFF"></rect><g transform="translate(12, 8.352941176470587) scale(0.7058823529411765)"><g clip-path="url(#AlipayNormal-clip0_2279_172795)"><path d="M25.119 1.30151V26.5598H30.5863V1.30151H25.119ZM0 26.5598H5.05221L6.43679 21.7862H15.1211L16.4347 26.5598H22.9043L15.5362 2.16449H8.20096L0 26.5598ZM7.57831 17.8045L10.8308 6.55854H10.9701L14.0506 17.8045H7.57831ZM52.1088 26.8001C56.9862 26.8001 61.383 23.2008 61.383 16.7995C61.383 11.0564 58.1987 7.62906 54.2553 7.62906C52.248 7.62906 50.6914 8.39099 48.9272 9.84384V8.01139H43.4599V32.4422H48.9272V26.3878C49.965 26.6636 50.9345 26.8029 52.1115 26.8029L52.1088 26.8001ZM74.3576 26.5571H79.8249L79.1668 21.92V14.1696C79.1668 9.94762 76.6761 7.62906 72.2821 7.62906C69.4802 7.62906 67.5412 8.11244 64.0129 9.18569L64.9823 13.4405C68.1994 11.9876 69.6194 11.365 71.1078 11.365C72.9075 11.365 73.7022 12.6458 73.7022 14.6175V14.7568C67.4402 15.9338 65.5012 16.592 64.2914 17.8018C63.3929 18.7002 63.0106 19.981 63.0106 21.4694C63.0106 25.0332 65.7798 26.9367 68.3741 26.9367C70.3104 26.9367 71.8697 26.2103 73.978 24.6181L74.3576 26.5544V26.5571ZM34.3223 8.01412V26.5598H39.7896V8.01412H34.3223V8.01412ZM98.6437 8.04963L98.6792 8.01412H93.5232L90.2707 19.2928H90.0986L86.3627 8.01412H80.2373L87.608 26.6281L84.5276 32.303V32.4422H89.3367L98.6437 8.04963V8.04963ZM52.1743 11.8893C54.217 11.8893 55.8419 13.5142 55.8419 16.9743C55.8419 21.4038 53.4551 23.3756 50.7897 23.3756C50.1671 23.3756 49.5799 23.3073 48.9218 23.0997V13.0636C50.0633 12.2689 50.9973 11.8866 52.1743 11.8866V11.8893ZM68.2977 20.9205C68.2977 20.4016 68.4015 19.8827 68.8166 19.4676C69.4747 18.8095 70.7528 18.3261 73.694 17.6352V22.0647C72.2411 22.8594 71.4109 23.1708 70.4415 23.1708C69.1279 23.1708 68.2949 22.305 68.2949 20.9205H68.2977Z" fill="#3E3A3A"></path><path d="M33.9072 3.54903C33.9072 5.34871 35.2207 6.55851 37.0559 6.55851C38.8911 6.55851 40.2047 5.34871 40.2047 3.54903C40.2047 1.74935 38.8911 0.539551 37.0559 0.539551C35.2207 0.539551 33.9072 1.78485 33.9072 3.54903Z" fill="#1677FF"></path><path d="M133.015 13.7162H123.588V4.2891C123.588 2.63962 122.25 1.3042 120.603 1.3042H117.402V13.7162C117.402 17.1326 120.172 19.9018 123.588 19.9018H136V16.7011C136 15.0517 134.662 13.7162 133.015 13.7162V13.7162Z" fill="#1677FF"></path><path d="M104.99 16.917C104.99 18.5664 106.329 19.9019 107.975 19.9019H114.393V13.7163H104.988V16.917H104.99Z" fill="#00B6FF"></path><path d="M117.402 22.936V29.3263C117.402 30.9758 118.741 32.3112 120.387 32.3112H123.588V22.9332H117.402V22.936Z" fill="#00B6FF"></path></g><defs><clipPath id="AlipayNormal-clip0_2279_172795"><rect width="136" height="31.9027" fill="white" transform="translate(0 0.539551)"></rect></clipPath></defs></g></svg>