<?xml version="1.0" standalone="no"?><!DOCTYPE svg PUBLIC "-//W3C//DTD SVG 1.1//EN" "http://www.w3.org/Graphics/SVG/1.1/DTD/svg11.dtd"><svg data-name="Boost" width="120" height="40" version="1.1" xmlns="http://www.w3.org/2000/svg" xmlns:xlink="http://www.w3.org/1999/xlink" viewBox="0 0 120 40"><rect class="bg" width="120" height="40" fill="#FFFFFF"></rect><g transform="translate(12, 4.228571428571428) scale(1.3714285714285714)"><g clip-path="url(#BoostLarge-clip0_2086_165748)"><path d="M19.3155 11.0596C18.8198 10.1929 18.1077 9.46964 17.2489 8.96037C16.3901 8.45109 15.414 8.17324 14.4157 8.15394C14.3922 7.16041 14.1144 6.18949 13.6089 5.33384C13.1034 4.4782 12.3871 3.76638 11.5282 3.26634C10.7233 2.77911 9.79772 2.52765 8.85689 2.54057C7.77575 2.55452 6.71691 2.84996 5.78473 3.39778C3.99734 4.34797 3.36768 6.28628 3.21728 6.85801C3.12117 7.247 3.06674 7.64511 3.05493 8.04562V14.4661C3.0546 14.7769 3.09007 15.0868 3.16066 15.3895C3.22221 15.6622 3.30533 15.9295 3.40924 16.189C3.68659 16.8385 4.08186 17.431 4.57504 17.9364L4.67193 18.0336C5.07968 18.4594 5.56446 18.8042 6.1006 19.0495C6.43401 19.1963 6.77947 19.314 7.13313 19.4015C7.42441 19.4706 7.7222 19.5086 8.0215 19.515H14.5414C14.9364 19.5028 15.3289 19.4486 15.7124 19.3534C16.2839 19.2027 18.223 18.5741 19.1672 16.7937C21.0068 13.5372 19.3251 11.0723 19.3155 11.0596Z" fill="white"></path><path d="M17.2943 12.2706C16.8198 11.3469 15.9955 10.7614 14.8425 10.5302C14.7555 10.5125 14.6575 10.5022 14.5627 10.492L14.436 10.4777C14.3153 10.4633 14.1938 10.4567 14.0723 10.458H13.9736L12.1083 10.4557L12.1109 8.59995C12.1162 8.44479 12.1099 8.28945 12.0919 8.13524L12.0776 8.00692C12.068 7.91627 12.0573 7.81496 12.0394 7.72664C11.8075 6.5741 11.222 5.74911 10.299 5.27479C9.87536 5.0557 9.41062 4.92741 8.93454 4.89814H8.83064C8.67098 4.89673 8.51142 4.9068 8.3532 4.92827C5.31949 5.33791 5.35378 8.25317 5.3569 8.37708V13.7858C5.3569 14.8708 5.65328 15.7306 6.23825 16.3413C6.83985 16.9164 7.69809 17.2114 8.78258 17.2114H14.2188C14.5266 17.2114 17.2478 17.1275 17.6408 14.2157C17.6665 14.0241 17.6766 13.8308 17.671 13.6377C17.6421 13.1607 17.5138 12.695 17.2943 12.2706Z" fill="#EA0029"></path><path d="M18.8635 0.153412H3.56221C2.69114 0.153412 1.85574 0.499444 1.2398 1.11538C0.623864 1.73132 0.277832 2.56672 0.277832 3.43779V19.0066C0.277798 19.438 0.362728 19.8651 0.527771 20.2636C0.692814 20.6621 0.934739 21.0241 1.23973 21.3291C1.54472 21.6341 1.9068 21.876 2.30529 22.0411C2.70379 22.2061 3.13089 22.2911 3.56221 22.291H18.8635C19.2948 22.291 19.7219 22.2061 20.1203 22.041C20.5188 21.8759 20.8809 21.634 21.1858 21.329C21.4908 21.024 21.7327 20.662 21.8977 20.2635C22.0627 19.865 22.1477 19.4379 22.1476 19.0066V3.43779C22.1477 3.00649 22.0627 2.57941 21.8977 2.18093C21.7327 1.78246 21.4908 1.42039 21.1858 1.1154C20.8809 0.810414 20.5188 0.568484 20.1203 0.403425C19.7219 0.238367 19.2948 0.153412 18.8635 0.153412V0.153412ZM19.1682 16.7927C18.2229 18.5721 16.2849 19.2017 15.7134 19.3524C15.3299 19.4476 14.9374 19.5017 14.5424 19.5139H8.02121C7.72191 19.5076 7.42412 19.4696 7.13284 19.4004C6.77949 19.3135 6.4343 19.1962 6.10108 19.05C5.56495 18.8047 5.08017 18.46 4.67242 18.0341L4.57553 17.937C4.08235 17.4315 3.68708 16.839 3.40973 16.1896C3.30582 15.9301 3.2227 15.6627 3.16114 15.39C3.09056 15.0873 3.05508 14.7774 3.05542 14.4666V8.0446C3.06725 7.64409 3.12167 7.24597 3.21777 6.85698C3.36817 6.28552 3.99704 4.34694 5.78522 3.39675C6.71739 2.84894 7.77624 2.5535 8.85737 2.53955C9.79804 2.52708 10.7233 2.7789 11.5279 3.26635C12.3868 3.76639 13.1031 4.47821 13.6086 5.33386C14.1141 6.1895 14.3919 7.16042 14.4154 8.15395C15.4137 8.17325 16.3899 8.45111 17.2486 8.96038C18.1074 9.46966 18.8195 10.1929 19.3152 11.0596C19.3248 11.0723 21.0065 13.5372 19.1682 16.7927Z" fill="#EA0029"></path><path d="M58.7397 5.66888H60.3411C60.4399 5.66895 60.5347 5.70826 60.6045 5.77815C60.6744 5.84805 60.7136 5.94282 60.7136 6.04164V8.75143H63.5244C63.6232 8.75143 63.718 8.79067 63.7879 8.86052C63.8578 8.93036 63.8971 9.02511 63.8972 9.12392V10.2357C63.8971 10.3345 63.8578 10.4293 63.7879 10.4992C63.718 10.5691 63.6233 10.6084 63.5244 10.6084H60.7136V14.5048C60.7136 16.793 61.543 17.6346 63.7616 17.7126C63.858 17.7159 63.9494 17.7565 64.0165 17.8258C64.0837 17.8951 64.1213 17.9878 64.1216 18.0843V19.3714C64.1214 19.4214 64.1111 19.4709 64.0914 19.5169C64.0718 19.5629 64.0431 19.6045 64.0071 19.6393C63.9711 19.674 63.9285 19.7012 63.8818 19.7193C63.8352 19.7373 63.7854 19.7459 63.7354 19.7444C59.8148 19.6444 58.3669 17.9895 58.3669 14.6682V6.04164C58.367 5.9428 58.4063 5.84803 58.4762 5.77814C58.5461 5.70825 58.6409 5.66895 58.7397 5.66888V5.66888Z" fill="#EA0029"></path><path d="M23.6581 14.1985C23.6581 10.4642 25.3109 8.5054 29.1473 8.5054C32.9426 8.5054 34.616 10.4235 34.616 14.1985C34.616 17.9736 32.9426 19.7693 29.1473 19.7693C25.3109 19.7693 23.6581 17.9328 23.6581 14.1985ZM26.1068 14.1985C26.1068 16.8714 27.0658 17.8715 29.146 17.8715C31.2261 17.8715 32.1659 16.8922 32.1659 14.1985C32.1659 11.5253 31.2274 10.3827 29.146 10.3827C27.0645 10.3827 26.1068 11.5253 26.1068 14.1985Z" fill="#EA0029"></path><path d="M36.1221 14.1985C36.1221 10.4642 37.7749 8.5054 41.611 8.5054C45.4066 8.5054 47.08 10.4235 47.08 14.1985C47.08 17.9736 45.4066 19.7693 41.611 19.7693C37.7749 19.7693 36.1221 17.9328 36.1221 14.1985ZM38.5706 14.1985C38.5706 16.8714 39.5296 17.8715 41.611 17.8715C43.6925 17.8715 44.6312 16.8922 44.6312 14.1985C44.6312 11.5253 43.6925 10.3827 41.611 10.3827C39.5296 10.3827 38.5706 11.5253 38.5706 14.1985Z" fill="#EA0029"></path><path d="M52.1125 14.8513C49.8477 14.4842 48.6232 13.7497 48.6232 11.6682C48.6232 9.70912 49.9498 8.5054 52.9092 8.5054C54.0802 8.52317 55.2429 8.70388 56.364 9.04232C56.4395 9.06605 56.5055 9.11331 56.5522 9.1772C56.5989 9.24109 56.624 9.31825 56.6238 9.39741V10.5998C56.6236 10.6605 56.6086 10.7202 56.5801 10.7738C56.5516 10.8273 56.5104 10.8731 56.4602 10.9071C56.4099 10.9412 56.3522 10.9624 56.2919 10.969C56.2315 10.9756 56.1705 10.9674 56.1141 10.945C55.1259 10.5597 54.0727 10.3688 53.0121 10.3827C51.6039 10.3827 50.808 10.7702 50.808 11.5661C50.808 12.4641 51.8694 12.8311 53.563 13.1171C55.7463 13.4842 56.9503 14.1577 56.9503 16.3207C56.9503 18.4635 55.7463 19.7285 52.5019 19.7285C51.1912 19.7381 49.8908 19.4969 48.6708 19.0178C48.6035 18.9891 48.5461 18.9413 48.5057 18.8803C48.4653 18.8193 48.4438 18.7478 48.4437 18.6747L48.4417 17.4837C48.4418 17.4214 48.4575 17.3601 48.4874 17.3054C48.5173 17.2507 48.5604 17.2044 48.6127 17.1706C48.6651 17.1369 48.7251 17.1167 48.7872 17.1121C48.8493 17.1074 48.9116 17.1183 48.9684 17.1439C50.0476 17.6018 51.2066 17.8421 52.3788 17.851C53.9911 17.851 54.7868 17.4021 54.7868 16.4636C54.7857 15.5656 54.1124 15.1778 52.1125 14.8513Z" fill="#EA0029"></path><path d="M67.1568 6.04475H66.4554V7.87397H66.0271V6.04475H65.321V5.66888H67.1568V6.04475Z" fill="#EA0029"></path><path d="M69.2935 7.87397V6.41361L68.7239 7.50148H68.4901L67.9238 6.41361V7.87319H67.4952V5.66888H67.9548L68.6073 6.92377L69.2655 5.66888H69.7221V7.87397H69.2935Z" fill="#EA0029"></path></g><defs><clipPath id="BoostLarge-clip0_2086_165748"><rect width="69.4444" height="22.1376" fill="white" transform="translate(0.277832 0.153412)"></rect></clipPath></defs></g></svg>