<?xml version="1.0" standalone="no"?><!DOCTYPE svg PUBLIC "-//W3C//DTD SVG 1.1//EN" "http://www.w3.org/Graphics/SVG/1.1/DTD/svg11.dtd"><svg data-name="BPI" width="120" height="40" version="1.1" xmlns="http://www.w3.org/2000/svg" xmlns:xlink="http://www.w3.org/1999/xlink" viewBox="0 0 120 40"><rect class="bg" width="120" height="40" fill="#FFFFFF"></rect><g transform="translate(25.81818181818182, 4) scale(1.4545454545454546)"><path fill-rule="evenodd" clip-rule="evenodd" d="M6.9374 0.827886C7.08057 0.807265 7.23155 0.817293 7.36342 0.879299C7.57463 0.970683 7.75152 1.155 7.79437 1.38085C7.82405 1.56546 7.76759 1.76094 7.64585 1.90486C7.62405 1.93132 7.59858 1.95426 7.57313 1.9772C7.55905 1.98989 7.54494 2.0026 7.53149 2.01588C8.19116 2.07817 8.86197 2.22859 9.42277 2.58777C9.44798 2.60235 9.47137 2.61974 9.49474 2.63711C9.52411 2.65894 9.55346 2.68075 9.58635 2.69695C10.1247 2.75585 10.6745 2.86178 11.1434 3.13975C11.3563 3.26912 11.5478 3.43989 11.6744 3.6533C11.7944 3.85345 11.8547 4.08692 11.8436 4.31884C11.8523 4.49709 11.802 4.67364 11.7207 4.83197C11.6065 5.06022 11.4255 5.25189 11.2185 5.40344C11.0216 5.5461 10.7996 5.65471 10.5667 5.72872C10.5428 5.73711 10.5185 5.74399 10.4942 5.75087C10.4575 5.76126 10.4208 5.77165 10.3859 5.7872C10.6089 5.80966 10.8355 5.83762 11.0449 5.91983C11.0568 5.95103 11.0625 5.98413 11.0681 6.01714C11.0703 6.02997 11.0725 6.04287 11.0751 6.05556L11.0762 6.06148C11.1273 6.33165 11.1785 6.60204 11.2333 6.87152C10.1204 6.7324 9.00138 6.63409 7.87935 6.61333C7.69147 6.60149 7.503 6.60211 7.31457 6.60273C7.24211 6.60297 7.16962 6.6032 7.09721 6.60273C7.04617 6.60311 6.9951 6.60297 6.94402 6.60283C6.80157 6.60244 6.65905 6.60206 6.51702 6.61276C6.21938 6.61398 5.92241 6.62899 5.62541 6.64399C5.50826 6.64992 5.39074 6.65585 5.27353 6.66093C5.15306 6.67101 5.0325 6.6801 4.91195 6.68918C4.71846 6.70376 4.52497 6.71835 4.33188 6.73706C3.86792 6.78141 3.40426 6.83183 2.94291 6.89793C2.9234 6.90003 2.90389 6.89986 2.88448 6.89969L2.87618 6.89963C2.92742 6.67799 2.96977 6.45455 3.01212 6.23114C3.03138 6.12952 3.05064 6.02789 3.07073 5.92646C3.12747 5.8993 3.19026 5.88564 3.25255 5.87208C3.27481 5.86723 3.29701 5.8624 3.31885 5.85697C3.42138 5.83384 3.52549 5.81989 3.62954 5.80594C3.67988 5.79919 3.73021 5.79244 3.78034 5.78466C3.45767 5.71093 3.1463 5.57576 2.88356 5.37661C2.61793 5.17449 2.3989 4.89808 2.31784 4.57477C2.29024 4.47843 2.29168 4.37861 2.29312 4.27925C2.29354 4.25043 2.29396 4.22164 2.29366 4.19299C2.30886 3.8985 2.44537 3.6146 2.65513 3.40401C2.92757 3.12633 3.29771 2.96263 3.6709 2.85684C3.95782 2.77562 4.25371 2.72845 4.55032 2.69723C4.56995 2.68858 4.58697 2.67578 4.60394 2.66302C4.61162 2.65724 4.61929 2.65147 4.62718 2.6461C5.00255 2.38085 5.44522 2.22209 5.89412 2.12195C6.12848 2.07308 6.36589 2.03805 6.60445 2.01658C6.48879 1.92082 6.39238 1.79738 6.35749 1.65105C6.31059 1.49229 6.33202 1.31517 6.42206 1.17464C6.5354 0.996954 6.72692 0.868423 6.9374 0.827886ZM5.49227 3.00585C5.25732 3.17294 5.05278 3.39271 4.94754 3.66037C4.89195 3.78805 4.8698 3.92661 4.86343 4.06432C4.86387 4.3807 5.00602 4.68748 5.22823 4.9146C5.44507 5.14582 5.7304 5.30556 6.02903 5.41432C6.25515 5.492 6.49168 5.54144 6.73083 5.55754C6.52035 5.24511 6.44666 4.86827 6.40222 4.50302C6.37617 4.24045 6.37168 3.97562 6.39122 3.71234C6.42336 3.32718 6.49313 2.93325 6.68639 2.59074C6.26224 2.63014 5.84157 2.76404 5.49227 3.00585ZM7.7246 3.51347C7.68305 3.19497 7.61111 2.87379 7.44985 2.59088C7.92118 2.63537 8.39223 2.79483 8.75876 3.09384C8.98502 3.28028 9.16843 3.5276 9.23791 3.81164C9.28583 3.99356 9.28047 4.18621 9.22952 4.36686C9.16394 4.60147 9.0228 4.81149 8.84388 4.97901C8.6169 5.1913 8.33447 5.34158 8.03699 5.43706C7.83201 5.49977 7.62008 5.54864 7.40468 5.55641C7.52946 5.37689 7.60184 5.1687 7.6541 4.95938C7.69533 4.8022 7.71546 4.64094 7.73555 4.48005L7.74154 4.43226C7.74898 4.28415 7.74812 4.13577 7.74727 3.98745C7.74687 3.91938 7.74648 3.85127 7.74689 3.78325C7.7482 3.72468 7.74136 3.66676 7.73451 3.60884C7.73076 3.57709 7.72701 3.54533 7.7246 3.51347ZM3.66917 3.3622C3.43451 3.46983 3.22258 3.64285 3.11098 3.87506C3.00993 4.0865 2.98301 4.33014 3.03252 4.55796C3.08072 4.78692 3.21882 4.99299 3.40484 5.13847C3.65122 5.3324 3.96042 5.43423 4.27006 5.48113C4.53917 5.51615 4.81363 5.52435 5.08245 5.48254C4.91077 5.41093 4.74198 5.3307 4.58723 5.22774C4.31566 5.05132 4.08043 4.80472 3.972 4.50005C3.81552 4.06658 3.92554 3.56559 4.21303 3.20783C4.02455 3.2276 3.84114 3.28494 3.66917 3.3622ZM10.2346 4.09313C10.2383 3.77463 10.1212 3.45938 9.92349 3.2074C10.201 3.24172 10.4736 3.33791 10.7007 3.49893C10.8909 3.63381 11.0352 3.83198 11.0904 4.05613C11.1453 4.25302 11.1383 4.4646 11.0761 4.65895C10.9964 4.90373 10.8106 5.105 10.5882 5.23706C10.3601 5.37661 10.0958 5.4444 9.83215 5.4855C9.65496 5.50485 9.47619 5.52039 9.29784 5.5057C9.26593 5.50058 9.23351 5.49947 9.20114 5.49836C9.1532 5.49673 9.10534 5.49509 9.05928 5.48042C9.29596 5.38268 9.52338 5.26065 9.72387 5.10288C9.72879 5.09828 9.73371 5.09369 9.73864 5.08909C9.83272 5.00129 9.92747 4.91288 10.0007 4.80712C10.1505 4.60005 10.2388 4.34751 10.2346 4.09313Z" fill="#DAB42D"></path><path fill-rule="evenodd" clip-rule="evenodd" d="M7.19148 7.33082L7.12335 7.33169L7.1232 7.33804C7.12943 7.4738 7.12857 7.60983 7.1277 7.74586C7.12718 7.82792 7.12666 7.91 7.12769 7.992L7.12766 12.2155C7.12759 14.7484 7.12751 17.2814 7.12798 19.8143C7.12664 19.8351 7.12304 19.8558 7.11944 19.8766L7.11741 19.8883C6.84035 19.7137 6.5648 19.5368 6.28927 19.3599L6.28829 19.3593C6.09051 19.2323 5.89233 19.1051 5.69399 18.979L5.10472 18.6013C4.35488 18.1209 3.60466 17.6402 2.85801 17.1551L2.78052 17.1046C2.52997 16.9412 2.27877 16.7774 2.03129 16.6096L1.99631 16.5859C1.77079 16.4329 1.54098 16.277 1.37293 16.0619C1.2218 15.8759 1.18025 15.6242 1.21586 15.3938C1.30125 14.9059 1.38622 14.4179 1.4712 13.9299C1.61744 13.0901 1.76369 12.2502 1.91201 11.4108C2.13205 10.1673 2.3528 8.92377 2.58818 7.68296C2.58992 7.67123 2.5931 7.64765 2.5947 7.63578L2.58876 7.6372L2.54158 7.6439C2.25417 7.68471 1.96672 7.72554 1.68083 7.77575C1.66574 7.77814 1.65058 7.78014 1.63543 7.78213C1.5968 7.78722 1.5582 7.7923 1.52087 7.80386C1.11275 9.93496 0.710755 12.0669 0.308721 14.1989L0.177071 14.8971C0.169142 14.9409 0.160499 14.9848 0.15185 15.0286C0.118019 15.2002 0.0840865 15.3724 0.092387 15.5481C0.0783453 15.8507 0.159266 16.1554 0.312132 16.4185C0.425189 16.6078 0.575304 16.774 0.741343 16.9207C0.897352 17.0625 1.07175 17.1823 1.2458 17.3019C1.28005 17.3255 1.31438 17.3491 1.34846 17.3728C2.1321 17.905 2.92459 18.4248 3.71713 18.9446L4.12451 19.2119C5.11307 19.8568 6.10236 20.501 7.09613 21.1386C7.1023 21.1423 7.1087 21.1467 7.1153 21.1512C7.14563 21.1719 7.18005 21.1954 7.21512 21.1722C7.36364 21.0764 7.51103 20.9787 7.65843 20.8811L7.78779 20.7955C9.18747 19.8667 10.5864 18.9369 11.9783 17.9971C12.0686 17.9356 12.159 17.8743 12.2494 17.8131C12.5859 17.585 12.9227 17.3568 13.252 17.1188C13.4835 16.9472 13.6987 16.7505 13.8632 16.5151C14.0162 16.2952 14.1047 16.0368 14.1408 15.7746C14.146 15.7104 14.1457 15.646 14.1455 15.5816C14.1453 15.5519 14.1452 15.5221 14.1456 15.4924C14.1488 15.3525 14.1219 15.2152 14.0951 15.0784C14.087 15.0368 14.0788 14.9952 14.0715 14.9536C13.9742 14.3831 13.8757 13.8128 13.7773 13.2426L13.7771 13.2415C13.7253 12.9417 13.6735 12.6415 13.6219 12.3417C13.573 12.0642 13.5244 11.7866 13.4758 11.5091C13.2565 10.2566 13.0372 9.00393 12.796 7.75527C11.914 7.61643 11.0259 7.51488 10.1359 7.44341C9.50999 7.39595 8.88333 7.35542 8.25522 7.34539C8.06892 7.3331 7.88214 7.33272 7.69539 7.33234C7.59235 7.33213 7.48932 7.33192 7.38637 7.32971C7.32259 7.32899 7.25517 7.32993 7.19148 7.33082ZM10.2675 9.27137C10.2192 9.23055 10.2121 9.14694 10.2698 9.11106C10.3263 9.05937 10.4247 9.09651 10.447 9.1636C10.4582 9.20386 10.437 9.24129 10.413 9.27236C10.5075 9.28281 10.6026 9.30456 10.6852 9.35245C10.6908 9.35544 10.6964 9.35879 10.702 9.36215C10.7193 9.37256 10.737 9.38312 10.758 9.38408C10.8431 9.39341 10.9294 9.41699 10.9991 9.46685C11.0702 9.51714 11.1057 9.61417 11.0708 9.69496C11.0317 9.78733 10.9343 9.84397 10.8373 9.86304C10.7956 9.86694 10.7942 9.90545 10.7929 9.94065C10.7925 9.95262 10.7921 9.96421 10.7901 9.97391C10.5759 9.92829 10.355 9.92293 10.1367 9.93634C10.0996 9.93895 10.0628 9.94465 10.0261 9.95035C9.9794 9.9576 9.93269 9.96485 9.88535 9.96572C9.88333 9.93634 9.88159 9.90725 9.88043 9.87815C9.86058 9.86954 9.83959 9.86395 9.81864 9.85837C9.78873 9.8504 9.75888 9.84245 9.73249 9.82575C9.65996 9.78677 9.59193 9.71629 9.59497 9.63069C9.59019 9.56134 9.63246 9.49651 9.68979 9.45866C9.75768 9.41276 9.84062 9.39369 9.92155 9.3838C9.94045 9.38325 9.95621 9.37343 9.97173 9.36376C9.97594 9.36114 9.98014 9.35853 9.98437 9.35612C10.0688 9.30287 10.17 9.2862 10.2675 9.27137ZM11.1818 10.015C11.3646 10.178 11.4496 10.4236 11.4553 10.6608C11.4683 10.7449 11.4625 10.829 11.4567 10.9132C11.4534 10.9608 11.4501 11.0084 11.4502 11.056C11.4292 11.2555 11.3929 11.4531 11.3558 11.6505L11.344 11.7159C11.3138 11.8813 11.2836 12.0472 11.2784 12.2154C11.2892 12.48 11.3966 12.7301 11.532 12.9563C11.5941 13.0658 11.6646 13.1703 11.735 13.2748C11.8057 13.3796 11.8764 13.4844 11.9386 13.5942L11.9504 13.6167C11.9893 13.6907 12.0312 13.7704 12.0075 13.8551C11.9839 13.9079 11.9414 13.9726 11.8733 13.9654C11.7895 13.9751 11.7265 13.9102 11.6737 13.8559L11.6699 13.852C11.5494 13.7147 11.4587 13.5555 11.3745 13.3954C11.2841 13.1922 11.1223 13.0341 10.9639 12.8793L10.9065 12.8231C10.8044 12.7235 10.7019 12.6245 10.5968 12.528L10.5938 12.5248L10.5898 12.521C10.5809 12.5128 10.5717 12.5041 10.5774 12.4914C10.7646 12.3387 10.8823 12.1133 10.9198 11.8798C10.9218 11.8709 10.9224 11.8614 10.923 11.8519C10.9243 11.8312 10.9255 11.8104 10.9415 11.795C10.9475 11.8 10.9534 11.8068 10.9593 11.8139C10.9764 11.834 10.9948 11.8556 11.0236 11.8413C11.0279 11.7969 11.0271 11.7521 11.0264 11.7073C11.0258 11.6702 11.0251 11.6331 11.0274 11.5961C11.0273 11.624 11.0278 11.6521 11.0284 11.6801C11.0295 11.737 11.0306 11.7939 11.0263 11.8503C11.0191 11.8516 11.0046 11.8544 10.9974 11.8558C11.0036 11.8611 11.0158 11.8717 11.0219 11.877C11.0458 11.878 11.0436 11.8591 11.0416 11.8411C11.0408 11.8337 11.04 11.8264 11.041 11.8208C11.0346 11.7205 11.0427 11.6206 11.0508 11.5208C11.0547 11.4739 11.0585 11.4269 11.0608 11.38C11.0786 11.2898 11.0644 11.2003 11.0501 11.1111C11.0453 11.0808 11.0405 11.0506 11.0369 11.0204C11.0802 11.0218 11.1235 11.0218 11.1671 11.0201C11.153 10.7664 11.1138 10.4968 10.9524 10.2886C10.8431 10.1438 10.6655 10.0589 10.4847 10.0396C10.2378 10.0119 9.99117 10.0633 9.75305 10.1217C9.72494 10.1254 9.71839 10.1509 9.71232 10.1744C9.7107 10.1807 9.70911 10.1868 9.70716 10.1924C9.73311 10.1986 9.76045 10.1984 9.78769 10.1983C9.82367 10.1981 9.85945 10.1979 9.89158 10.2122C9.86852 10.2222 9.84453 10.2297 9.82053 10.2373C9.79842 10.2442 9.77631 10.2512 9.75493 10.2601C9.7351 10.2667 9.73061 10.2897 9.72901 10.3077C9.72771 10.427 9.76043 10.5493 9.83729 10.6443C9.85353 10.6262 9.86545 10.6043 9.87739 10.5824C9.89813 10.5444 9.91891 10.5062 9.96237 10.488C9.99505 10.4671 10.025 10.5 10.0452 10.5224L10.0466 10.5239C10.1297 10.6132 10.1338 10.7451 10.1096 10.8571C10.0992 10.9156 10.0224 10.9181 9.97684 10.9024C9.93588 10.8896 9.91561 10.8526 9.90012 10.8166C9.83614 10.9797 9.8661 11.1885 10.0009 11.3105C10.0024 11.3003 10.0037 11.2898 10.0049 11.2794C10.0103 11.2342 10.0159 11.1878 10.0468 11.1517C10.0824 11.1033 10.1469 11.0902 10.2047 11.0918C10.2053 11.2036 10.1568 11.3267 10.0521 11.3827C9.98507 11.4167 9.91146 11.4303 9.83782 11.4439C9.79475 11.4518 9.75168 11.4598 9.70991 11.4718C9.56153 11.5096 9.43313 11.6017 9.33194 11.712C9.2424 11.8077 9.16858 11.9149 9.09473 12.0221C9.04297 12.0973 8.9912 12.1724 8.934 12.2437C8.84236 12.3594 8.72858 12.4722 8.57977 12.5115C8.58381 12.5598 8.61004 12.6018 8.63534 12.6422L8.6384 12.6471C8.70412 12.7469 8.80009 12.8253 8.9062 12.882C8.90416 12.9143 8.88555 12.9405 8.86709 12.9664C8.86067 12.9755 8.85427 12.9845 8.84859 12.9937C8.75942 13.116 8.66836 13.2396 8.55154 13.3387C8.52331 13.3635 8.49016 13.3845 8.45093 13.3851C8.44167 13.3739 8.43276 13.362 8.42377 13.35C8.39326 13.3091 8.36178 13.2669 8.31225 13.2505C8.25206 13.2448 8.19408 13.2621 8.13646 13.2794C8.11204 13.2867 8.0877 13.294 8.06327 13.2995C8.05082 13.3238 8.04011 13.3488 8.03055 13.3745C8.04237 13.3787 8.05475 13.3815 8.06715 13.3843C8.08617 13.3887 8.10524 13.3931 8.12233 13.4023C8.1245 13.4387 8.12215 13.4751 8.1198 13.5116L8.11842 13.5335C8.14635 13.5404 8.17483 13.5449 8.20335 13.5495C8.2443 13.5559 8.28535 13.5625 8.32485 13.576L8.3263 13.6127C8.27853 13.6063 8.23161 13.5954 8.18498 13.5846L8.18284 13.5841C8.17776 13.585 8.17251 13.5859 8.1672 13.5867C8.13846 13.5914 8.10788 13.5963 8.09237 13.6232C8.03678 13.704 7.97743 13.7966 7.98988 13.8983C8.00535 13.8925 8.01864 13.8831 8.03191 13.8737C8.03912 13.8686 8.04632 13.8635 8.05386 13.8589C8.09526 13.857 8.10482 13.9055 8.10843 13.9365C8.11226 13.9383 8.11637 13.941 8.12063 13.9439C8.13475 13.9533 8.15063 13.9638 8.16373 13.9469C8.19409 13.9224 8.22221 13.8953 8.25032 13.8683C8.27328 13.8462 8.29622 13.8241 8.32036 13.8034C8.34338 13.7918 8.35235 13.8214 8.35424 13.838C8.32886 13.8672 8.30146 13.8946 8.27407 13.922C8.25396 13.9422 8.23385 13.9623 8.21454 13.9831L8.21058 13.9876C8.20193 13.9973 8.1926 14.0077 8.19486 14.0218C8.19495 14.0546 8.19168 14.0875 8.18842 14.1204C8.18216 14.1834 8.1759 14.2463 8.19341 14.3084C8.20804 14.298 8.22099 14.285 8.23391 14.2719C8.25371 14.2518 8.27348 14.2318 8.29923 14.2219C8.31301 14.2266 8.32587 14.2336 8.33877 14.2406C8.35786 14.251 8.37703 14.2614 8.3994 14.2644C8.48661 14.2427 8.53227 14.1652 8.57532 14.0922C8.58591 14.0742 8.59641 14.0564 8.60728 14.0399C8.65635 14.0739 8.71454 14.089 8.77346 14.0971C8.77617 14.1117 8.77843 14.1265 8.78071 14.1413C8.78292 14.1557 8.78515 14.1702 8.78779 14.1846L8.8027 14.187C8.85409 14.1362 8.88738 14.0663 8.88623 13.9941C8.88608 13.9629 8.88427 13.9317 8.88247 13.9005C8.87907 13.8417 8.87567 13.7827 8.88333 13.724C8.89665 13.6475 8.94775 13.5851 9.00015 13.5296C9.01254 13.5346 9.02467 13.5403 9.03681 13.546C9.05572 13.5549 9.07467 13.5638 9.09468 13.5704C9.16503 13.588 9.24016 13.5763 9.30588 13.5475C9.35626 13.532 9.38999 13.4818 9.40606 13.4365C9.3331 13.4116 9.25261 13.3442 9.27389 13.2606C9.28634 13.2048 9.3331 13.1587 9.39086 13.1466C9.48481 13.1266 9.58556 13.1373 9.67372 13.1753C9.88443 13.2632 10.0379 13.4277 10.1897 13.5906C10.2368 13.6411 10.2838 13.6915 10.3322 13.7393C10.3422 13.8013 10.336 13.8641 10.3298 13.927C10.3257 13.9686 10.3217 14.0103 10.3222 14.0517L10.3216 14.0747C10.3162 14.2684 10.3107 14.4665 10.3696 14.6533C10.3869 14.7122 10.4158 14.7669 10.4446 14.8215C10.4836 14.8954 10.5226 14.9691 10.5327 15.053C10.5399 15.092 10.5381 15.1313 10.5364 15.1706C10.5351 15.1997 10.5339 15.229 10.5362 15.2581C10.5464 15.2546 10.557 15.2515 10.5676 15.2484C10.6028 15.238 10.6386 15.2274 10.6655 15.202C10.6952 15.1759 10.7144 15.1414 10.7331 15.1075L10.736 15.1024L10.7553 15.1033C10.7904 15.1048 10.8257 15.1064 10.8606 15.1123C10.8545 15.1322 10.8477 15.152 10.8374 15.1704L10.8308 15.1823C10.7539 15.3195 10.6766 15.4577 10.5753 15.5794C10.5219 15.6448 10.4614 15.7079 10.3838 15.7459C10.3172 15.78 10.2316 15.7828 10.1656 15.7461C10.1402 15.7334 10.116 15.7175 10.0918 15.7015C10.0388 15.6666 9.98568 15.6316 9.91952 15.6304C9.87941 15.6281 9.85324 15.6557 9.82775 15.6825C9.81819 15.6926 9.80872 15.7025 9.79864 15.7108C9.77681 15.7338 9.74628 15.7378 9.71599 15.7418C9.70209 15.7436 9.68824 15.7454 9.67531 15.749C9.63955 15.768 9.6135 15.8096 9.62435 15.8499L9.63218 15.85C9.66304 15.8506 9.6947 15.8512 9.72366 15.8633L9.72592 15.8774C9.73078 15.9081 9.73573 15.9393 9.74841 15.9683C9.76731 15.9657 9.77935 15.9493 9.7913 15.9331C9.79821 15.9238 9.8051 15.9144 9.81326 15.9078C9.82387 15.8982 9.83324 15.8865 9.84264 15.8747C9.86289 15.8495 9.88331 15.824 9.91662 15.8184C9.90866 15.8359 9.89809 15.8526 9.88478 15.867C9.83721 15.9187 9.80142 15.9789 9.76572 16.0389C9.75611 16.0551 9.74651 16.0712 9.73669 16.0872C9.70788 16.1279 9.71339 16.1776 9.71864 16.2248C9.71969 16.2344 9.72074 16.2438 9.72149 16.253C9.72284 16.2585 9.72332 16.2647 9.72382 16.2709C9.72518 16.2882 9.7266 16.3062 9.74624 16.3126C9.75221 16.303 9.75794 16.2933 9.76367 16.2835C9.77402 16.266 9.78447 16.2482 9.79618 16.2315C9.83337 16.2154 9.8501 16.2389 9.86782 16.2638C9.879 16.2795 9.89057 16.2958 9.90794 16.303C9.93188 16.2475 9.94106 16.1883 9.95025 16.129C9.957 16.0854 9.96377 16.0418 9.97641 15.9996L10.0056 15.9845C10.0052 16.0022 10.0035 16.0199 10.0001 16.0379C9.95571 16.1756 9.93501 16.3252 9.97351 16.467C9.97568 16.4856 9.98918 16.4985 10.0024 16.511L10.0077 16.5161C10.0132 16.506 10.0175 16.4948 10.0218 16.4835C10.0324 16.4557 10.0432 16.4276 10.0725 16.4144C10.0952 16.3982 10.1231 16.3979 10.1504 16.3977C10.1589 16.3976 10.1675 16.3975 10.1757 16.3969C10.1749 16.3862 10.1772 16.3743 10.1795 16.3623C10.1838 16.3394 10.1882 16.3162 10.1718 16.3002L10.1859 16.3022C10.1859 16.2889 10.1855 16.2756 10.1852 16.2623C10.1845 16.2314 10.1837 16.2004 10.187 16.1698C10.1942 16.14 10.2125 16.1145 10.2302 16.0897L10.2348 16.0834L10.2302 16.1139C10.1852 16.2541 10.1983 16.4071 10.237 16.5475L10.2823 16.5767L10.2956 16.5853C10.3076 16.5416 10.3193 16.4979 10.3293 16.4538C10.3749 16.4447 10.4208 16.4378 10.4668 16.4308C10.4966 16.4263 10.5264 16.4218 10.5562 16.4167C10.5814 16.4152 10.5977 16.3956 10.6125 16.3777L10.6183 16.3708C10.6631 16.3135 10.6857 16.2458 10.7083 16.1782C10.7214 16.1392 10.7344 16.1001 10.7517 16.063C10.7766 16.006 10.8117 15.9433 10.8745 15.9205C10.9203 15.9043 10.9526 15.9378 10.9813 15.9674L10.9926 15.979C11.015 15.9253 11.0228 15.8683 11.0305 15.8112C11.0341 15.7843 11.0378 15.7573 11.043 15.7307C11.0585 15.6118 11.1238 15.51 11.188 15.4099C11.2021 15.3879 11.2162 15.3661 11.2296 15.3441C11.3079 15.2259 11.3686 15.0942 11.3858 14.9534C11.3926 14.8468 11.3952 14.7344 11.3536 14.6337C11.3351 14.6592 11.3185 14.6859 11.3018 14.7126C11.282 14.7445 11.2621 14.7763 11.239 14.8062C11.1113 14.8115 11.0235 14.6913 11.0022 14.5798C10.9713 14.3568 10.9974 14.113 11.138 13.9273C11.1665 13.8921 11.2047 13.8479 11.2559 13.857C11.3434 14.0889 11.578 14.2605 11.8298 14.2821C11.976 14.2966 12.131 14.2361 12.2153 14.1163C12.2626 14.0458 12.2995 13.9656 12.3031 13.8803C12.3256 13.7917 12.2927 13.7017 12.2546 13.6221C12.2221 13.5519 12.181 13.4861 12.1399 13.4205C12.1153 13.3812 12.0907 13.3419 12.068 13.3017C12.1076 13.1185 12.1983 12.9498 12.2944 12.7892C12.1452 12.8406 12.0292 12.9608 11.9508 13.0918C11.9552 13.0246 11.9801 12.9608 12.0046 12.8978C12.01 12.884 12.0154 12.8702 12.0206 12.8564C12.0513 12.7741 12.0961 12.6983 12.1407 12.6226C12.1538 12.6005 12.1668 12.5784 12.1795 12.5561C12.0381 12.5985 11.9391 12.715 11.848 12.8222C11.8977 12.6337 11.9755 12.4519 12.088 12.2906L12.0763 12.2925C12.0624 12.2947 12.0485 12.2969 12.036 12.3034C11.8936 12.3762 11.785 12.4982 11.7105 12.6353C11.6105 12.3685 11.6465 12.0793 11.6823 11.8041C11.7315 11.4191 11.8031 11.0363 11.9071 10.6618C11.9543 10.4969 12.0421 10.3342 12.1927 10.2387C11.958 10.201 11.7407 10.43 11.763 10.6544L11.7543 10.6556C11.7532 10.5759 11.7271 10.4991 11.6976 10.4257C11.6126 10.2154 11.4102 10.0529 11.1818 10.015ZM9.41648 10.9279C9.36248 10.8693 9.36465 10.7811 9.39129 10.7111C9.40996 10.6626 9.43631 10.6088 9.48958 10.5899L9.48706 10.5968C9.46729 10.6512 9.44612 10.7094 9.4657 10.767C9.49306 10.8044 9.54459 10.7999 9.58585 10.7957C9.66499 10.7816 9.73942 10.7522 9.81373 10.7229C9.83414 10.7149 9.85459 10.7068 9.87508 10.6991C9.93081 10.6773 9.99653 10.6818 10.0505 10.7064C9.99523 10.7157 9.94007 10.7298 9.89303 10.7608C9.85615 10.7838 9.82273 10.812 9.78933 10.8401C9.73582 10.8852 9.68236 10.9303 9.6148 10.954C9.55038 10.9772 9.46758 10.9791 9.41648 10.9279ZM8.61379 10.833C8.61605 10.8725 8.60101 10.9078 8.58599 10.9431C8.57219 10.9755 8.5584 11.0078 8.55806 11.0434C8.56602 11.1051 8.5734 11.1673 8.57051 11.2297C8.53889 11.2003 8.53065 11.16 8.52239 11.1196C8.51434 11.0802 8.50626 11.0407 8.47656 11.0109C8.41026 10.9454 8.32442 10.8965 8.23264 10.8748C8.23883 10.9053 8.23858 10.9373 8.23833 10.9692C8.2379 11.0247 8.23746 11.08 8.27071 11.1274C8.28262 11.1448 8.29316 11.1631 8.3037 11.1814C8.32085 11.2111 8.33801 11.2408 8.36104 11.2667C8.36234 11.2882 8.3635 11.3099 8.36451 11.3318L8.33527 11.3328C8.32002 11.3153 8.30506 11.2976 8.29011 11.2799C8.26262 11.2473 8.23509 11.2147 8.20586 11.1838C8.13251 11.1518 8.05167 11.1777 7.97854 11.2011L7.95615 11.2082L7.97692 11.2306C8.00881 11.2647 8.04079 11.2989 8.06515 11.3387C8.14824 11.4604 8.23568 11.5951 8.22381 11.7479C8.22743 11.8465 8.16301 11.9311 8.08875 11.9911C8.12152 12.0373 8.18095 12.0416 8.23444 12.0455L8.25638 12.0472C8.26233 12.0471 8.2685 12.0472 8.27475 12.0473C8.29907 12.0477 8.32476 12.0481 8.34468 12.0341C8.36284 12.0134 8.37746 11.9901 8.39207 11.9669C8.40844 11.9409 8.42482 11.9149 8.44616 11.8924C8.45137 11.893 8.46194 11.8941 8.46715 11.8945C8.52837 11.965 8.58626 12.0382 8.64416 12.1114C8.69275 12.1728 8.7414 12.2342 8.79199 12.2941C8.86561 12.2341 8.91716 12.155 8.96837 12.0764C8.98493 12.051 9.00146 12.0257 9.01868 12.001C9.0226 11.9944 9.0272 11.9879 9.03182 11.9814C9.04239 11.9666 9.05306 11.9516 9.05588 11.9338C9.0314 11.837 8.96257 11.7668 8.89378 11.6966C8.82348 11.6248 8.75322 11.5531 8.73032 11.4531C8.71686 11.3754 8.726 11.2974 8.73514 11.2194C8.74536 11.1321 8.75557 11.0449 8.73408 10.9584C8.71107 10.9054 8.6714 10.8517 8.61379 10.833ZM9.58241 13.6075C9.63897 13.5404 9.69723 13.4713 9.7833 13.4427C9.89433 13.4191 9.99653 13.4882 10.0788 13.5526C10.0702 13.6002 10.0675 13.6485 10.0715 13.6968C10.0732 13.6771 10.0739 13.6574 10.0745 13.6376C10.0753 13.6141 10.076 13.5905 10.0786 13.5671C10.0847 13.5885 10.0834 13.6109 10.0821 13.6333C10.0806 13.6606 10.079 13.688 10.0909 13.7139C10.1116 13.7581 10.1485 13.7897 10.1854 13.8213C10.2184 13.8496 10.2515 13.8778 10.2727 13.9151C10.2746 13.9909 10.2659 14.0666 10.2573 14.1419L10.2571 14.144C10.1992 14.1085 10.1249 14.0654 10.0567 14.101C10.004 14.1211 9.98551 14.176 9.96898 14.2252C9.96686 14.2315 9.96478 14.2377 9.96266 14.2437C9.93978 14.37 9.99045 14.4945 10.0462 14.6061C10.1275 14.7561 10.2334 14.8944 10.36 15.0108C10.2924 15.0982 10.1959 15.1742 10.0795 15.1803C10.0704 15.1806 10.0614 15.1808 10.0523 15.1811C9.93515 15.1848 9.81361 15.1886 9.70802 15.2428C9.68167 15.2603 9.65931 15.2826 9.63699 15.3048C9.60377 15.338 9.57062 15.3711 9.52447 15.3879C9.51785 15.365 9.51428 15.3417 9.51072 15.3184C9.50937 15.3097 9.50803 15.3009 9.50652 15.2921C9.49787 15.2668 9.4804 15.2464 9.46324 15.2264C9.45942 15.2219 9.45563 15.2175 9.45195 15.213C9.37899 15.2156 9.31833 15.2619 9.28041 15.3199C9.23944 15.3804 9.16749 15.4454 9.0873 15.4201C9.05473 15.4077 9.01984 15.4064 8.98567 15.4109C8.97705 15.4366 8.96885 15.4623 8.96063 15.488C8.95713 15.499 8.95361 15.5101 8.95006 15.5211C8.87971 15.4697 8.87884 15.3731 8.89795 15.2971C8.90284 15.2607 8.9126 15.2253 8.92236 15.19C8.93312 15.1511 8.94386 15.1122 8.94804 15.0719H8.91301C8.90575 15.0931 8.90033 15.1151 8.89491 15.1372C8.88291 15.186 8.87089 15.2349 8.83889 15.275C8.80849 15.2459 8.77896 15.216 8.75145 15.1844C8.74056 15.1902 8.73008 15.1969 8.71961 15.2036C8.69697 15.218 8.67434 15.2325 8.64752 15.2385C8.63927 15.1431 8.69384 15.0588 8.74885 14.9851C8.78895 14.9307 8.82789 14.8711 8.83006 14.802C8.79455 14.8333 8.76355 14.8687 8.73253 14.904C8.70879 14.9311 8.68504 14.9582 8.65924 14.9835C8.65172 14.9308 8.63333 14.8807 8.60612 14.8348C8.58459 14.8337 8.5632 14.8328 8.54181 14.8319C8.53111 14.8315 8.52042 14.831 8.50971 14.8305C8.52766 14.777 8.56037 14.7252 8.61335 14.6989C8.69312 14.6557 8.78938 14.6646 8.87493 14.6839C8.87479 14.6677 8.87479 14.6517 8.87493 14.6359C8.82462 14.6235 8.77508 14.6091 8.72564 14.5947C8.71861 14.5927 8.71158 14.5906 8.70455 14.5886C8.70744 14.5769 8.71177 14.5654 8.71611 14.5539C8.72548 14.529 8.73489 14.504 8.72974 14.4773C8.72178 14.4577 8.71064 14.4397 8.69954 14.4218C8.69491 14.4144 8.69027 14.4069 8.68588 14.3993C8.7765 14.3861 8.86943 14.413 8.93877 14.4711C8.9766 14.5035 9.00834 14.5423 9.04004 14.5812C9.0895 14.6418 9.13888 14.7023 9.21121 14.7379C9.271 14.7703 9.34018 14.7703 9.4069 14.7703C9.41384 14.7703 9.42075 14.7703 9.42763 14.7704C9.44343 14.7703 9.45927 14.7702 9.47511 14.7702C9.55156 14.7701 9.62831 14.77 9.70397 14.7591C9.72083 14.7425 9.70415 14.7246 9.68989 14.7092C9.68529 14.7043 9.68095 14.6996 9.67806 14.6954C9.53967 14.5522 9.46034 14.3588 9.45006 14.163C9.44818 14.1355 9.44442 14.1084 9.43921 14.0815C9.38941 14.0718 9.33976 14.0526 9.30574 14.0146C9.25811 13.9606 9.2364 13.8892 9.22887 13.8197C9.35626 13.8256 9.46642 13.7455 9.54285 13.6534C9.55617 13.6386 9.56925 13.6231 9.58241 13.6075Z" fill="#DAB42D"></path><path d="M10.0165 9.50923C10.0745 9.43338 10.1727 9.3903 10.2689 9.39044C10.2474 9.46855 10.2241 9.54793 10.234 9.62999C10.2335 9.68875 10.2689 9.74171 10.2643 9.80061C10.1798 9.79171 10.0935 9.76248 10.0354 9.69934C9.9852 9.65033 9.98202 9.56728 10.0165 9.50923Z" fill="#DAB42D"></path><path d="M10.3997 9.39284C10.4899 9.38635 10.5826 9.42505 10.6431 9.49016C10.6861 9.53296 10.6927 9.60118 10.6717 9.65541C10.618 9.75499 10.495 9.79595 10.3867 9.80584C10.4621 9.68211 10.4642 9.52137 10.3997 9.39284Z" fill="#DAB42D"></path><path d="M9.71066 9.58353C9.73338 9.51686 9.81011 9.48607 9.87597 9.47675C9.85903 9.5211 9.83211 9.56502 9.83804 9.61432C9.84282 9.67943 9.89334 9.72999 9.94748 9.7629C9.94676 9.77223 9.94531 9.79073 9.94459 9.79991C9.87308 9.79581 9.79346 9.7879 9.74178 9.73352C9.6985 9.6961 9.70052 9.63423 9.71066 9.58353Z" fill="#DAB42D"></path><path d="M10.803 9.47659C10.8705 9.48493 10.9443 9.51868 10.968 9.58577C10.9811 9.63832 10.9754 9.70258 10.9281 9.73789C10.8592 9.80145 10.7583 9.79679 10.6704 9.79382C10.7314 9.75851 10.8033 9.72589 10.8299 9.65639C10.8564 9.59524 10.8281 9.53267 10.803 9.47659Z" fill="#DAB42D"></path><path d="M4.35082 9.56728C4.50629 9.56883 4.66176 9.5677 4.81723 9.56784C4.81998 9.70301 4.81593 9.83832 4.8194 9.97363C4.93883 9.97547 5.0584 9.97137 5.17783 9.97547C5.18564 9.96007 5.18941 9.94397 5.18912 9.92702C5.18897 9.816 5.18767 9.70485 5.18999 9.59383C5.33735 9.59341 5.48457 9.59454 5.63194 9.59312C5.63483 9.91982 5.63411 10.2465 5.63237 10.5732C4.92464 10.5719 4.21706 10.5728 3.50948 10.5728C3.50919 10.2464 3.50774 9.91982 3.5102 9.59341C3.65756 9.59383 3.80493 9.59454 3.95229 9.59298C3.95519 9.67561 3.95345 9.75838 3.95374 9.84115C3.95475 9.88606 3.94853 9.93239 3.96373 9.97589C4.08793 9.97137 4.21243 9.97518 4.33677 9.97363C4.36138 9.83959 4.33996 9.70259 4.35082 9.56728Z" fill="#DAB42D"></path><path d="M10.1441 10.1708C10.2388 10.1707 10.3351 10.1608 10.4287 10.1789C10.4426 10.1852 10.4722 10.1824 10.4675 10.2056C10.3898 10.2428 10.3055 10.2652 10.2262 10.2988C10.1999 10.3102 10.1721 10.3178 10.1436 10.3212C10.1447 10.2709 10.1447 10.2208 10.1441 10.1708Z" fill="#DAB42D"></path><path fill-rule="evenodd" clip-rule="evenodd" d="M5.28326 10.7378C4.80859 10.7396 4.33378 10.7389 3.85897 10.7382L3.85318 10.7588C3.78616 11.2811 3.71968 11.8035 3.65321 12.326L3.6532 12.3261L3.65319 12.3261L3.65319 12.3261C3.57912 12.9083 3.50504 13.4905 3.43019 14.0725C3.42283 14.1534 3.41158 14.2339 3.40034 14.3144C3.38662 14.4126 3.37289 14.5109 3.36621 14.6098C3.69625 14.6102 4.02631 14.6101 4.35637 14.6099C4.82994 14.6097 5.30351 14.6095 5.77703 14.6109C5.77703 14.5561 5.76899 14.5021 5.76095 14.4481L5.76095 14.4481C5.75548 14.4113 5.75 14.3745 5.74707 14.3375C5.60853 13.2533 5.47029 12.1691 5.33277 11.0849C5.32445 11.037 5.31914 10.9885 5.31384 10.94L5.31384 10.94L5.31384 10.94L5.31384 10.94C5.3064 10.8721 5.29897 10.8042 5.28326 10.7378ZM4.23086 11.8895L4.23231 11.8642L4.2462 11.8478C4.46204 11.845 4.67831 11.8452 4.89415 11.8475L4.91137 11.8623C4.91144 11.8811 4.91205 11.8999 4.91267 11.9188V11.9188C4.91457 11.9774 4.91649 12.0364 4.90225 12.0936C4.74581 12.0919 4.5893 12.0923 4.43277 12.0926L4.24143 12.0928C4.22277 12.0269 4.22687 11.9572 4.23086 11.8895ZM4.24012 12.6201C4.24136 12.6616 4.24136 12.7033 4.24135 12.7449V12.7449C4.24135 12.781 4.24134 12.8171 4.24215 12.8532L4.49245 12.8531C4.63157 12.8531 4.7707 12.8531 4.90978 12.8529C4.91372 12.8099 4.91342 12.7669 4.91311 12.7239V12.7239V12.7239C4.91287 12.6895 4.91263 12.6551 4.91456 12.6208C4.89545 12.6112 4.87431 12.6071 4.85318 12.6085C4.66991 12.6089 4.48679 12.6091 4.30353 12.6085C4.28152 12.6068 4.26024 12.6119 4.24012 12.6201ZM4.22888 13.4678C4.22965 13.4398 4.23041 13.4118 4.2284 13.3841C4.2311 13.3834 4.23379 13.3827 4.23649 13.382C4.25813 13.3765 4.27986 13.371 4.30251 13.3715C4.42478 13.3716 4.54699 13.3716 4.66921 13.3715C4.73033 13.3715 4.79146 13.3715 4.8526 13.3715C4.87402 13.3697 4.89472 13.3749 4.91369 13.3848C4.91119 13.4139 4.91203 13.4434 4.91287 13.4728C4.91426 13.522 4.91565 13.5711 4.90153 13.6187C4.76488 13.6178 4.62828 13.6179 4.49167 13.618C4.40817 13.6181 4.32466 13.6181 4.24114 13.618C4.22613 13.5691 4.22751 13.5185 4.22888 13.4678Z" fill="#DAB42D"></path><path d="M3.09145 14.7894C4.07755 14.7899 5.06365 14.7883 6.04975 14.7903C6.05062 15.1167 6.04975 15.4431 6.05019 15.7695C5.78731 15.7716 5.52442 15.7694 5.26154 15.7708C5.25662 15.6856 5.26863 15.5993 5.24953 15.5154C4.7973 15.5168 4.34507 15.515 3.89284 15.5164C3.89067 15.6007 3.89183 15.685 3.89212 15.7695C3.62518 15.7715 3.35824 15.7698 3.09131 15.7704C3.09174 15.4434 3.09145 15.1164 3.09145 14.7894Z" fill="#DAB42D"></path><path fill-rule="evenodd" clip-rule="evenodd" d="M17.471 5.16773C18.5061 5.16762 19.5412 5.16766 20.5763 5.1677L22.1289 5.16773C23.0575 5.16117 23.9907 5.19806 24.907 5.35765C25.5918 5.48072 26.2775 5.6701 26.8766 6.03061C27.1621 6.20385 27.4238 6.41966 27.6331 6.67962C27.822 6.91086 27.9668 7.17649 28.0644 7.45755C28.1923 7.82621 28.2381 8.21899 28.2328 8.60752C28.2256 8.93238 28.178 9.25848 28.0659 9.5649C27.9465 9.89952 27.7492 10.2052 27.4982 10.4579C27.0558 10.8982 26.4755 11.1729 25.8832 11.3557C25.8047 11.3815 25.7249 11.4022 25.6451 11.4228L25.6451 11.4228L25.6451 11.4228C25.58 11.4397 25.515 11.4565 25.4508 11.4761C26.1181 11.601 26.785 11.798 27.3589 12.1672C27.6347 12.3466 27.8848 12.5686 28.0795 12.8337C28.2584 13.0722 28.3895 13.3441 28.4763 13.6282C28.5854 13.9888 28.6229 14.3678 28.6154 14.7434C28.6074 15.158 28.5458 15.5747 28.4009 15.965C28.2118 16.4888 27.8575 16.9493 27.4049 17.2772C26.8789 17.6606 26.2519 17.8819 25.6184 18.0174C25.129 18.1204 24.6298 18.1753 24.1302 18.1988C23.8626 18.2147 23.5946 18.2139 23.3266 18.213C23.2254 18.2127 23.1242 18.2124 23.023 18.2129H20.0351C19.7102 18.2121 19.3853 18.2126 19.0605 18.213C18.53 18.2138 17.9995 18.2145 17.4692 18.2098C17.4716 15.649 17.4712 13.0882 17.4709 10.5275C17.4706 8.74089 17.4704 6.95431 17.471 5.16773ZM21.001 7.51443C21.0004 8.0319 21.0005 8.54938 21.0006 9.06683V9.06684C21.0006 9.51527 21.0007 9.96367 21.0003 10.412C21.1678 10.4124 21.3353 10.4124 21.5029 10.4123H21.5029L21.8043 10.4124C21.9209 10.4111 22.0377 10.4118 22.1546 10.4124H22.1546C22.5046 10.4145 22.8549 10.4166 23.2017 10.3646C23.5452 10.3135 23.8962 10.226 24.1808 10.0207C24.4253 9.84786 24.5866 9.57433 24.6384 9.28421C24.6995 8.95371 24.6789 8.59482 24.5121 8.29571C24.3647 8.03346 24.1079 7.84669 23.8298 7.73576C23.4335 7.57492 23.001 7.52765 22.5758 7.51443H22.5754C22.0506 7.51407 21.5258 7.51372 21.001 7.51443ZM21.0005 13.9783C21.0008 13.5494 21.001 13.1205 21.0003 12.6916C21.2399 12.6913 21.4796 12.6913 21.7192 12.6914C21.9588 12.6914 22.1985 12.6915 22.4382 12.6912C22.9308 12.7009 23.432 12.7313 23.9013 12.8918C24.195 12.9903 24.4763 13.1591 24.6533 13.417C24.8332 13.6755 24.8898 13.9987 24.8754 14.3076C24.863 14.6253 24.7746 14.9532 24.5597 15.1969C24.3456 15.4462 24.0301 15.5809 23.7168 15.6614C23.2531 15.7778 22.7715 15.7996 22.2949 15.7965C22.1333 15.7967 21.9718 15.7966 21.8102 15.7964C21.5408 15.7961 21.2715 15.7958 21.0021 15.7975C20.9999 15.1912 21.0002 14.5847 21.0005 13.9783Z" fill="#A42A25"></path><path fill-rule="evenodd" clip-rule="evenodd" d="M33.6449 5.16815C32.477 5.16797 31.3092 5.16779 30.1414 5.16888C30.1397 7.37258 30.1399 9.57622 30.1402 11.7799C30.1403 13.1755 30.1405 14.5712 30.1402 15.9669C30.1409 16.2534 30.1405 16.5399 30.1401 16.8264C30.1395 17.2888 30.1388 17.7513 30.143 18.2136C31.0076 18.2114 31.8722 18.2119 32.7368 18.2123C33.0945 18.2125 33.4522 18.2127 33.81 18.2127C33.8107 18.1893 33.8118 18.1659 33.8129 18.1426C33.8142 18.1148 33.8156 18.0871 33.8162 18.0595C33.8162 17.6334 33.8162 17.2073 33.8161 16.7811C33.816 15.7156 33.8158 14.6501 33.8166 13.5845C34.0708 13.5845 34.325 13.5846 34.5792 13.5846C35.2146 13.5847 35.8502 13.5847 36.4858 13.5844C37.0638 13.5769 37.6445 13.5285 38.2072 13.392C38.6261 13.2925 39.0345 13.1452 39.4127 12.9402C40.1066 12.568 40.6941 11.9877 41.0275 11.2758C41.1884 10.9366 41.2954 10.5736 41.3566 10.2043C41.4365 9.70624 41.4456 9.19771 41.3893 8.69663C41.3449 8.30017 41.2521 7.90743 41.0958 7.53898C40.9252 7.13613 40.6762 6.76467 40.3606 6.45845C40.0276 6.13203 39.6265 5.87812 39.1985 5.69141C38.7229 5.48378 38.2151 5.35506 37.7025 5.27598C37.0926 5.18129 36.4739 5.16161 35.8578 5.16817C35.1202 5.16838 34.3825 5.16826 33.6449 5.16815ZM33.8787 9.46417C33.8786 8.86052 33.8785 8.25689 33.8791 7.65331C34.3532 7.65314 34.8274 7.65314 35.3014 7.65314C35.6504 7.64874 36.0015 7.65577 36.3459 7.71799C36.6102 7.7658 36.8735 7.84191 37.1053 7.97953C37.3477 8.1212 37.5385 8.34618 37.6376 8.60667C37.7526 8.89738 37.7683 9.21517 37.7484 9.52346C37.7268 9.77973 37.662 10.0374 37.5253 10.2585C37.4215 10.4311 37.2736 10.5767 37.1022 10.6839C36.8753 10.8271 36.6147 10.9099 36.3521 10.9614C36.0361 11.0224 35.7131 11.0382 35.3919 11.0338C35.1756 11.0337 34.9593 11.0338 34.743 11.0338C34.4548 11.0338 34.1666 11.0338 33.8784 11.0336C33.8788 10.5105 33.8788 9.98732 33.8787 9.46417Z" fill="#A42A25"></path><path d="M42.9668 5.171C44.1891 5.16462 45.412 5.16959 46.6345 5.16852C46.6349 9.18211 46.6345 13.1957 46.6347 17.2094C46.6358 17.5426 46.6324 17.8758 46.6363 18.2089C45.4136 18.2162 44.1906 18.2105 42.9677 18.2118C42.9668 13.8649 42.9688 9.51793 42.9668 5.171Z" fill="#A42A25"></path></g></svg>