<?xml version="1.0" standalone="no"?><!DOCTYPE svg PUBLIC "-//W3C//DTD SVG 1.1//EN" "http://www.w3.org/Graphics/SVG/1.1/DTD/svg11.dtd"><svg data-name="DANA" width="120" height="40" version="1.1" xmlns="http://www.w3.org/2000/svg" xmlns:xlink="http://www.w3.org/1999/xlink" viewBox="0 0 120 40"><rect class="bg" width="120" height="40" fill="#FFFFFF"></rect><g transform="translate(12, 5.600000000000001) scale(0.96)"><g stroke="none" stroke-width="1" fill="none" fill-rule="evenodd"><g transform="translate(0.000000, -596.000000)" fill="#108EE9"><g transform="translate(0.000000, 596.476904)"><path d="M0,14.58 C0,6.53 6.41,0 14.32,0 C22.23,0 28.64,6.53 28.64,14.58 C28.64,22.63 22.23,29.16 14.32,29.16 C6.41,29.16 0,22.63 0,14.58 L0,14.58 Z M10.48,11.31 C11.79,11.11 13.005,10.6 14.23,10.14 C15.23,9.765 16.23,9.375 17.25,9.085 C19.005,8.59 20.705,8.72 22.26,9.79 C22.545,9.985 22.695,10.24 22.695,10.59 L22.695,14.29 L22.695,14.635 L22.695,18.695 C22.695,19.015 22.58,19.085 22.3,18.915 C21.115,18.17 19.815,17.915 18.44,18.05 C17.5,18.14 16.585,18.385 15.69,18.69 C14.67,19.04 13.65,19.4 12.625,19.74 C11.7,20.04 10.76,20.26 9.785,20.305 C8.53,20.355 7.37,20.065 6.305,19.39 C6.05,19.23 5.945,18.985 5.945,18.685 C5.95,17.22 5.95,15.755 5.95,14.29 L5.95,12.24 C5.95,11.685 5.945,11.135 5.955,10.58 C5.955,10.485 5.995,10.35 6.06,10.305 C6.115,10.27 6.25,10.32 6.33,10.37 C6.91,10.76 7.525,11.065 8.21,11.23 C8.645,11.335 9.075,11.385 9.51,11.385 C9.83,11.385 10.155,11.355 10.48,11.31 L10.48,11.31 Z M51.9,13.445 C51.98,10.015 54.725,7.26 58.11,7.26 C61.495,7.26 64.245,10.015 64.32,13.445 L64.325,13.445 L64.325,15.67 L64.325,18.835 L64.325,21.99 L61.22,21.99 L61.22,18.835 L55,18.835 L55,21.99 L51.895,21.99 L51.895,18.835 L51.895,15.67 L51.895,13.445 L51.9,13.445 Z M55,13.57 L55,15.67 L61.22,15.67 L61.22,13.57 C61.21,11.83 59.82,10.425 58.11,10.425 C56.4,10.425 55.01,11.83 55,13.57 L55,13.57 Z M87.575,13.445 C87.65,10.015 90.4,7.26 93.785,7.26 C97.17,7.26 99.915,10.015 99.995,13.445 L100,13.445 L100,15.67 L100,18.835 L100,21.99 L96.89,21.99 L96.89,18.835 L90.675,18.835 L90.675,21.99 L87.565,21.99 L87.565,18.835 L87.565,15.67 L87.565,13.445 L87.575,13.445 Z M90.675,13.57 L90.675,15.67 L96.89,15.67 L96.89,13.57 C96.88,11.83 95.495,10.425 93.785,10.425 C92.075,10.425 90.685,11.83 90.675,13.57 L90.675,13.57 Z M69.75,13.445 C69.825,10.015 72.57,7.26 75.955,7.26 C79.34,7.26 82.09,10.015 82.165,13.445 L82.175,13.445 L82.175,21.99 L79.065,21.99 L79.065,13.57 C79.055,11.83 77.67,10.425 75.955,10.425 C74.245,10.425 72.86,11.83 72.85,13.57 L72.845,13.57 L72.845,21.99 L69.74,21.99 L69.74,13.445 L69.75,13.445 Z M39.205,7.265 C39.225,7.265 39.245,7.26 39.265,7.26 C39.28,7.26 39.3,7.265 39.32,7.265 L39.555,7.265 L39.515,7.275 C43.39,7.41 46.495,10.645 46.495,14.625 C46.495,18.615 43.38,21.855 39.495,21.98 L39.555,21.995 L37.175,21.995 L37.165,21.995 L34.065,21.995 L34.065,19.745 L34.065,9.51 L34.065,7.265 L37.165,7.265 L37.175,7.265 L39.205,7.265 Z M37.165,10.425 L37.165,11.015 L37.175,11.015 L37.175,18.235 L37.165,18.235 L37.165,18.82 L39.53,18.815 C41.68,18.675 43.39,16.855 43.39,14.625 C43.39,12.395 41.675,10.57 39.51,10.435 L37.165,10.425 Z"></path></g></g></g></g></svg>