<?xml version="1.0" standalone="no"?><!DOCTYPE svg PUBLIC "-//W3C//DTD SVG 1.1//EN" "http://www.w3.org/Graphics/SVG/1.1/DTD/svg11.dtd"><svg data-name="GCash" width="120" height="40" version="1.1" xmlns="http://www.w3.org/2000/svg" xmlns:xlink="http://www.w3.org/1999/xlink" viewBox="0 0 120 40"><rect class="bg" width="120" height="40" fill="#FFFFFF"></rect><g transform="translate(12, 8.48) scale(0.96)"><g stroke="none" stroke-width="1" fill="none" fill-rule="evenodd"><g transform="translate(0.000000, -533.000000)"><g transform="translate(0.000000, 533.068454)"><path d="M73.7805356,13.2097327 C73.7805356,15.5397444 72.1871943,16.7580838 70.6138531,16.7580838 C68.5571761,16.7580838 67.4471706,14.9097412 67.4471706,13.1697325 C67.4471706,11.4363905 68.5355093,9.68138174 70.6138531,9.68138174 C72.1871943,9.68138174 73.7805356,10.8930545 73.7805356,13.2097327 M75.9022128,7.49970417 L74.3438717,7.49970417 C74.0322035,7.49970417 73.7805356,7.75303877 73.7805356,8.06304032 L73.7805356,9.68138174 C73.6272015,8.66971002 72.337195,7.31970327 70.132184,7.31970327 C66.998835,7.31970327 64.7238236,9.77971557 64.7238236,13.1697325 C64.7238236,16.5614161 67.0305018,19.1197623 70.0921838,19.1197623 C72.0005267,19.1197623 73.1838659,18.0147567 73.7805356,17.3914203 L73.7805356,18.3764252 C73.7805356,18.6864268 74.0322035,18.9397614 74.3438717,18.9397614 L75.9022128,18.9397614 C76.2122144,18.9397614 76.4638823,18.6864268 76.4638823,18.3764252 L76.4638823,8.06304032 C76.4638823,7.75303877 76.2122144,7.49970417 75.9022128,7.49970417" fill="#002CB9"></path><path d="M83.4795841,12.136894 C82.2295778,11.7918923 81.1495724,11.4918908 81.1495724,10.6802201 C81.1495724,10.0068834 81.7612421,9.62188144 82.8295808,9.62188144 C83.8179191,9.62188144 84.4879224,10.0568836 84.6712567,10.8168874 C84.731257,11.070222 84.9562581,11.2485562 85.2162594,11.2485562 L86.7712672,11.2485562 C86.9346013,11.2485562 87.0912688,11.1768892 87.197936,11.0518886 C87.3062699,10.926888 87.3529368,10.7618871 87.3279366,10.598553 C87.0096017,8.54520939 85.3595935,7.32020327 82.9095812,7.32020327 C80.3345683,7.32020327 78.4662257,8.74021037 78.4662257,10.7002202 C78.4662257,13.1868993 80.736237,13.793569 82.5595795,14.2835714 C83.8112524,14.6185731 84.8912578,14.9069079 84.8912578,15.6802451 C84.8912578,16.3819152 84.1862543,16.8185841 83.0512486,16.8185841 C82.0762437,16.8185841 81.2812397,16.3252483 81.074572,15.5919113 C81.002905,15.3402434 80.7845706,15.1719092 80.5295693,15.1719092 L78.8928945,15.1719092 C78.7245603,15.1719092 78.5662262,15.2452429 78.4578923,15.3752435 C78.3528918,15.5019108 78.3095582,15.6669117 78.3378917,15.8285791 C78.6945601,17.7669222 80.6479032,19.1202623 83.0912488,19.1202623 C85.6962618,19.1202623 87.5146042,17.6969218 87.5146042,15.6535783 C87.4429372,13.2318995 85.2445929,12.6252298 83.4795841,12.136894" fill="#002CB9"></path><path d="M95.4149771,7.50820421 C94.138304,7.50820421 92.9782982,7.93487301 92.1682942,8.68987678 L92.1682942,4.26652133 C92.1682942,3.95651978 91.9166262,3.70485186 91.604958,3.70485186 L90.066617,3.70485186 C89.7566154,3.70485186 89.5049475,3.95651978 89.5049475,4.26652133 L89.5049475,18.3765919 C89.5049475,18.6865934 89.7566154,18.939928 90.066617,18.939928 L91.604958,18.939928 C91.9166262,18.939928 92.1682942,18.6865934 92.1682942,18.3765919 L92.1682942,12.7565638 C92.1682942,10.9215546 93.1182989,9.68154841 94.7716405,9.68154841 C96.4149821,9.68154841 97.3566534,10.9215546 97.3566534,12.7565638 L97.3566534,18.3765919 C97.3566534,18.6865934 97.6083214,18.939928 97.9183229,18.939928 L99.4383305,18.939928 C99.7483321,18.939928 100,18.6865934 100,18.3765919 L100,12.4148954 C100,9.43488051 98.199991,7.50820421 95.4149771,7.50820421" fill="#002CB9"></path><path d="M63.1511491,15.2084094 L61.8328092,14.456739 C61.7478087,14.4084054 61.6511416,14.3834053 61.5528078,14.3834053 C61.3611401,14.3834053 61.1861393,14.4784057 61.0844721,14.6384065 C60.7544704,15.1550758 60.2961348,15.5800779 59.7211319,15.9050795 C59.0411285,16.2884148 58.274458,16.4834158 57.4394539,16.4834158 C56.0211134,16.4834158 54.8561076,16.0300802 53.9811032,15.1350757 C53.1044322,14.2400712 52.65943,13.0850654 52.65943,11.7050585 C52.65943,10.323385 53.1044322,9.17004585 53.9811032,8.2733747 C54.8577743,7.37837023 56.0211134,6.92503463 57.4394539,6.92503463 C58.2727914,6.92503463 59.0377952,7.11836893 59.7111319,7.50337085 C60.2811347,7.82837248 60.7428037,8.25670795 61.0811387,8.77504388 C61.1844726,8.93171133 61.3578068,9.02504513 61.5478077,9.02504513 C61.6461416,9.02504513 61.7444754,9.000045 61.8311425,8.95004475 L63.1528158,8.18170758 C63.2878164,8.10504053 63.3844836,7.9733732 63.4194838,7.82170578 C63.4544839,7.67170503 63.4261505,7.5133709 63.34115,7.3867036 C62.7544804,6.5066992 61.9678098,5.7866956 61.002805,5.24835958 C59.9177996,4.64168988 58.7177936,4.333355 57.4394539,4.333355 C55.3127766,4.333355 53.5244343,5.04835858 52.1210939,6.45669895 C50.7194203,7.86503933 50.0094167,9.63004815 50.0094167,11.7050585 C50.0094167,13.7784022 50.7194203,15.5434111 52.1210939,16.9517514 C53.5244343,18.3600918 55.3127766,19.0750954 57.4394539,19.0750954 C58.7327937,19.0750954 59.9394664,18.7634272 61.0244718,18.1500908 C61.9878099,17.605088 62.7678138,16.8834178 63.3461501,16.0034134 C63.4311505,15.8734127 63.4578173,15.7184119 63.4211504,15.5667445 C63.3844836,15.4167438 63.2861498,15.2850764 63.1511491,15.2084094" fill="#002CB9"></path><path d="M41.863376,10.5400527 C41.4767074,10.5400527 41.1617058,10.8533876 41.1617058,11.2417229 L41.1617058,12.2517279 C41.1617058,12.6383965 41.4767074,12.9533981 41.863376,12.9533981 L45.8350625,12.9533981 C45.3800602,15.6434116 42.5567128,16.5517494 41.3283733,16.5517494 C39.9000328,16.5517494 38.6966935,16.0734137 37.7500221,15.133409 C36.8483509,14.2384045 36.3900153,13.0900655 36.3900153,11.723392 C36.3900153,10.3567185 36.8450176,9.20171268 37.7416887,8.2933748 C38.6366932,7.38503693 39.7983657,6.92503463 41.1900393,6.92503463 C42.0500436,6.92503463 42.8383809,7.1200356 43.5333843,7.50503753 C44.0867204,7.81170573 44.5367227,8.20170768 44.8717244,8.66337665 C44.9983917,8.83671085 45.2100594,8.9400447 45.4383939,8.9400447 C45.5633945,8.9400447 45.6850618,8.90837788 45.7883956,8.84837758 L46.8484009,8.23837453 C47.0217351,8.1400407 47.1434024,7.97170653 47.1867359,7.77670555 C47.2267361,7.5867046 47.1867359,7.38837028 47.0750687,7.23170283 C46.4983992,6.42503213 45.7417287,5.75836213 44.8233908,5.24835958 C43.7317187,4.64168988 42.5083792,4.333355 41.1900393,4.333355 C39.0900288,4.333355 37.3050199,5.05502528 35.8833461,6.47669905 C34.4616723,7.89837283 33.740002,9.65671495 33.740002,11.7033919 C33.740002,13.7650688 34.4616723,15.5267443 35.8833461,16.9417514 C37.3050199,18.3567585 39.130029,19.0750954 41.3083732,19.0750954 C43.1233823,19.0750954 45.2267261,18.190091 46.5433994,16.8734177 C47.6984052,15.7184119 48.206741,14.0700704 48.3500751,13.1500658 L48.3550751,13.1517324 L48.3784086,12.9317313 C48.406742,12.6850634 48.4284088,12.0300602 48.4417422,11.4683907 C48.4550756,10.9583881 48.0467402,10.5400527 47.5384044,10.5400527 L41.863376,10.5400527 Z" fill="#002CB9"></path><path d="M25.062792,11.7043919 C25.062792,13.8410692 24.5644562,15.8994128 23.6244515,17.7494221 C23.3077832,18.3710919 23.5111176,19.129429 24.1011205,19.4994308 C24.7677905,19.9194329 25.6511283,19.6777651 26.0077967,18.9760949 C27.1194689,16.7927506 27.7478054,14.3227383 27.7478054,11.7043919 C27.7478054,9.09104546 27.1228023,6.62436646 26.0144634,4.44435556 C25.657795,3.74268538 24.7727905,3.50101751 24.1061205,3.91935293 C23.5177843,4.29102146 23.3144499,5.04935858 23.6294515,5.66936168 C24.5661228,7.51770426 25.062792,9.57271453 25.062792,11.7043919" fill="#6FBBF8"></path><path d="M20.7226036,11.7043919 C20.7226036,13.0293985 20.4392689,14.3094049 19.9009328,15.4777441 C19.6175981,16.0894138 19.8342658,16.8160841 20.4059354,17.1744192 L20.4059354,17.1744192 C21.0926055,17.6077547 22.00261,17.3360867 22.340945,16.5977497 C23.0392819,15.0827421 23.407617,13.4227338 23.407617,11.7043919 C23.407617,9.99104996 23.0409485,8.33437501 22.3476117,6.82270078 C22.00761,6.08436376 21.0976055,5.81269573 20.4109354,6.24603123 C19.8409325,6.60436636 19.6242648,7.32936998 19.9059329,7.94103971 C20.4409355,9.10604553 20.7226036,10.3843853 20.7226036,11.7043919" fill="#6FBBF8"></path><path d="M11.7033919,20.723437 C9.29504648,20.723437 7.03003515,19.7850989 5.3266933,18.0817571 C3.62168478,16.3784152 2.68501343,14.1134039 2.68501343,11.7050585 C2.68501343,9.29504648 3.62168478,7.03003515 5.3266933,5.3266933 C7.03003515,3.62335145 9.29504648,2.68501343 11.7033919,2.68501343 C14.3050715,2.68501343 16.1567475,3.74335205 17.2117527,4.5600228 C17.7467554,4.9733582 18.5034259,4.93002465 18.9817616,4.45168893 C19.5550978,3.8800194 19.4934308,2.93668135 18.8517609,2.44334555 C17.4167538,1.34167338 15.0067417,0 11.7033919,0 C8.57670955,0 5.63836153,1.21833943 3.42835048,3.42835048 C1.21667275,5.63836153 0,8.57837623 0,11.7050585 C0,14.8117407 1.23000615,17.7817556 3.4266838,19.9800999 C5.63836153,22.190111 8.57670955,23.4084504 11.7033919,23.4084504 C14.333405,23.4084504 16.8300842,22.5467794 18.871761,20.9584381 C19.4984308,20.4701024 19.5534311,19.5417644 18.9917616,18.9800949 L18.9634282,18.9517614 C18.4934258,18.4817591 17.7467554,18.4350922 17.2200861,18.8417609 C16.1884143,19.6367649 14.3167383,20.723437 11.7033919,20.723437" fill="#007CFF"></path><path d="M18.7185936,10.7480537 C18.465259,10.4947191 18.1219239,10.3530518 17.7635888,10.3530518 L17.7619221,10.3530518 L13.0635653,10.3580518 L13.0635653,10.3580518 C12.3168949,10.3597185 11.7118919,10.9647215 11.7118919,11.7097252 C11.7118919,12.4563956 12.3168949,13.0613986 13.0635653,13.0613986 C13.0668987,13.0613986 13.070232,13.0613986 13.0718987,13.0613986 L16.2135811,13.0580653 C15.6152447,15.0464086 13.731902,16.4830824 11.5335577,16.403082 C8.99354497,16.3097482 6.97353487,14.1814042 7.00853504,11.6397249 C7.04186854,9.07304537 9.13354567,7.00303502 11.7102252,7.00303502 C12.608563,7.00303502 13.4685673,7.25303627 14.2119044,7.72137194 C14.7452404,8.05804029 15.4419105,7.97137319 15.8885794,7.52470429 C16.4969158,6.91636792 16.3869153,5.89802949 15.660245,5.43802719 C14.0535703,4.41968877 12.0935605,4.05135359 10.1068839,4.46635567 C7.26520299,5.05969197 5.04519189,7.30636987 4.46352232,10.1497174 C3.48851744,14.9097412 7.11853559,19.1097622 11.7102252,19.1097622 C15.793579,19.1097622 19.1152622,15.7880789 19.1152622,11.7047252 C19.1152622,11.3463901 18.9719282,11.0013883 18.7185936,10.7480537" fill="#002CB9"></path></g></g></g></g></svg>